HIERARCHY
ROOT Hips
{
  OFFSET -35.2597 29.1586 114.425
  CHANNELS 6 Xposition Yposition Zposition Zrotation Xrotation Yrotation
  JOINT LeftUpLeg
  {
    OFFSET 8.64259 1.95398 -2.38835
    CHANNELS 3 Zrotation Xrotation Yrotation
    JOINT LeftLeg
    {
      OFFSET 43.7702 0 0
      CHANNELS 3 Zrotation Xrotation Yrotation
      JOINT LeftFoot
      {
        OFFSET 40.6238 0 0
        CHANNELS 3 Zrotation Xrotation Yrotation
        JOINT LeftToeBase
        {
          OFFSET 12.7242 0 0
          CHANNELS 3 Zrotation Xrotation Yrotation
          End Site
          {
            OFFSET 0 0 0
          }
        }
      }
    }
  }
  JOINT RightUpLeg
  {
    OFFSET -8.2249 1.95398 -2.59336
    CHANNELS 3 Zrotation Xrotation Yrotation
    JOINT RightLeg
    {
      OFFSET 43.5653 0 0
      CHANNELS 3 Zrotation Xrotation Yrotation
      JOINT RightFoot
      {
        OFFSET 40.6238 0 0
        CHANNELS 3 Zrotation Xrotation Yrotation
        JOINT RightToeBase
        {
          OFFSET 12.7242 0 0
          CHANNELS 3 Zrotation Xrotation Yrotation
          End Site
          {
            OFFSET 0 0 0
          }
        }
      }
    }
  }
  JOINT Spine
  {
    OFFSET 0.165834 0.87714 6.61349
    CHANNELS 3 Zrotation Xrotation Yrotation
    JOINT Spine1
    {
      OFFSET 7.38963 1.71661e-005 0
      CHANNELS 3 Zrotation Xrotation Yrotation
      JOINT Spine2
      {
        OFFSET 11.9445 1.14441e-005 0
        CHANNELS 3 Zrotation Xrotation Yrotation
        JOINT Spine3
        {
          OFFSET 14.7254 4.19617e-005 0
          CHANNELS 3 Zrotation Xrotation Yrotation
          JOINT Spine4
          {
            OFFSET 10.9679 0 0
            CHANNELS 3 Zrotation Xrotation Yrotation
            JOINT RightShoulder
            {
              OFFSET 2.46616 -1.6653 3.69651
              CHANNELS 3 Zrotation Xrotation Yrotation
              JOINT RightArm
              {
                OFFSET 13.0012 0 0
                CHANNELS 3 Zrotation Xrotation Yrotation
                JOINT RightForeArm
                {
                  OFFSET 28.7848 1.62311e-005 0
                  CHANNELS 3 Zrotation Xrotation Yrotation
                  JOINT RightHand
                  {
                    OFFSET 26.5688 1.62095e-005 0
                    CHANNELS 3 Zrotation Xrotation Yrotation
                    End Site
                    {
                      OFFSET 0 0 0
                    }
                  }
                }
              }
            }
            JOINT LeftShoulder
            {
              OFFSET 2.38034 -1.29275 -3.7523
              CHANNELS 3 Zrotation Xrotation Yrotation
              JOINT LeftArm
              {
                OFFSET 16.3182 6.07031e-005 0
                CHANNELS 3 Zrotation Xrotation Yrotation
                JOINT LeftForeArm
                {
                  OFFSET 27.0901 0 0
                  CHANNELS 3 Zrotation Xrotation Yrotation
                  JOINT LeftHand
                  {
                    OFFSET 24.5451 1.51738e-005 0
                    CHANNELS 3 Zrotation Xrotation Yrotation
                    End Site
                    {
                      OFFSET 0 0 0
                    }
                  }
                }
              }
            }
            JOINT Neck
            {
              OFFSET 5.0226 -0.0266342 0
              CHANNELS 3 Zrotation Xrotation Yrotation
              JOINT Head
              {
                OFFSET 6.69364 2.86102e-005 0
                CHANNELS 3 Zrotation Xrotation Yrotation
                End Site
                {
                  OFFSET 0 0 0
                }
              }
            }
          }
        }
      }
    }
  }
}
MOTION
Frames:	7
Frame Time:	0.0416667
-231.371 68.6684 220.986 101.524 47.179 86.325 -148.135 70.8884 58.3581 -8.06508 14.495 0.0961715 20.806 15.469 -35.1324 150.687 4.61047 -62.5886 -161.665 -53.0933 114.885 -8.38888 -8.13294 0.997186 119.355 -13.6335 0.979467 21.0556 1.34652 5.32925 -0.764335 8.0214 -90.5175 10.8244 -1.76088 -0.865062 -0.84561 -1.79722 -0.786717 -23.3852 -1.41949 -1.35432 -3.37256 -1.4195 -1.35433 87.6671 -37.7923 -108.218 39.8383 10.8217 4.51757 -6.11492 -52.0324 -5.99401 -52.2977 13.7645 -33.1334 -87.7313 -58.1088 83.4555 -27.8465 -9.53076 -32.49 3.39428 36.7472 -4.46152 5.99632 -0.142568 -5.08147 2.50547 -0.985018 -6.98722 -3.91882 0.221514 -2.6625 
-226.45 69.5556 216.23 103.734 46.4222 85.5773 -155.541 69.829 66.303 -7.85221 20.8315 0.440018 19.9213 11.465 -33.1014 150.919 3.85286 -63.4018 -159.81 -56.3455 117.04 -8.15654 -8.77998 0.446193 115.685 -14.8885 0.370936 19.7431 2.17541 4.48686 -0.588484 7.99855 -90.5854 10.8696 -1.44214 -1.02913 -0.800867 -1.48604 -0.964658 -23.3367 -1.06621 -1.41495 -3.32405 -1.0662 -1.41496 87.9824 -37.6578 -107.709 43.5221 9.5192 3.92986 -4.7708 -33.3793 -5.18125 -18.027 -0.528945 -6.93964 -87.6705 -56.5619 83.3021 -27.4187 -11.0931 -20.6459 3.37946 36.5964 -4.45042 -0.684371 -0.116543 -5.88526 2.00743 -1.10351 -7.30058 -4.9652 0.133847 -2.23293 
-221.22 70.2338 211.471 103.833 47.8402 85.5093 -159.139 67.932 68.4592 -4.29422 24.0733 0.281735 17.7425 9.06045 -33.1482 151.242 3.05945 -64.2356 -159.513 -58.0106 118.628 -8.16801 -7.16262 0.645081 117.076 -15.767 1.48323 21.9959 1.41802 4.13828 -0.397412 7.94161 -90.6411 10.9817 -1.08799 -1.17296 -0.689253 -1.13857 -1.12395 -23.222 -0.685216 -1.44568 -3.20933 -0.685211 -1.44568 88.1177 -37.0604 -107.683 42.0647 9.60978 2.15815 -4.90781 -35.7605 -5.23678 -18.6828 2.23207 -19.1262 -87.5808 -56.849 83.4688 -24.9916 -12.946 -12.9787 3.47654 38.4151 -4.55007 -0.335939 -0.117952 -5.78835 1.85507 -1.97567 -6.43379 -3.62675 -0.908188 -1.9506 
-217.71 71.369 208.34 105.006 47.8391 82.6415 -161.735 66.3194 70.0626 -3.15334 13.9904 0.180322 18.6262 17.3351 -36.2188 151.97 3.72754 -63.2197 -164.884 -61.0327 113.059 -8.40015 -8.05704 0.857505 117.872 -16.1512 2.29675 23.5916 0.98435 3.57157 0.139506 8.04422 -90.3304 10.7902 0.125392 -0.667637 -0.88094 0.0958747 -0.672514 -23.415 0.320257 -0.599085 -3.40233 0.320244 -0.59909 87.7355 -38.1004 -107.988 41.8557 8.60825 -2.66467 -4.93507 -36.2413 -5.25351 -24.5119 2.18694 -15.594 -86.8018 -54.1674 84.1681 -25.3386 -13.1803 -7.8391 3.12121 30.8079 -4.18526 2.22315 -0.315604 -10.0513 0.595703 -3.63341 -9.16605 -1.95969 -2.26017 -0.397879 
-216.758 72.8035 207.324 103.729 46.1341 80.553 -163.769 67.6767 72.0166 -4.63036 -0.130041 0.148032 22.1918 22.1184 -39.7843 152.751 5.14377 -61.3499 -177.056 -62.0934 99.3074 -8.31698 -11.2186 0.0127317 117.496 -16.2579 2.61825 23.6033 1.03378 3.41844 0.597705 8.09756 -90.0615 10.6803 1.16198 -0.228349 -0.990109 1.15081 -0.279283 -23.5294 1.1769 0.131491 -3.51679 1.17689 0.131477 89.2419 -35.0494 -106.359 40.4595 7.81992 -8.8968 -5.63667 -46.591 -5.66051 -21.3185 2.47569 -18.7339 -86.2777 -55.4183 85.0959 -22.9006 -14.2766 -5.06531 3.04899 28.9271 -4.11396 1.9625 -0.41804 -13.007 1.4078 -4.20303 -5.80709 -2.93964 -3.23537 -1.95901 
-216.304 73.6563 206.481 102.633 45.4093 79.5475 -166.415 69.9497 74.1285 -7.63402 0.0591156 -0.13498 24.2617 11.743 -37.6813 152.156 5.82739 -60.726 175.79 -62.0647 91.7731 -7.58725 -12.0496 -1.21344 116.424 -16.5009 1.86626 25.5867 0.377685 3.00324 0.800421 8.15337 -90.0356 10.5697 1.57774 -0.21306 -1.10032 1.56683 -0.282316 -23.6431 1.5688 0.271084 -3.63047 1.56882 0.271087 89.5352 -32.6523 -106.67 42.4488 5.40065 -14.987 -4.97806 -36.9678 -5.27477 -27.8757 2.83535 -16.8111 -85.9761 -58.7348 85.9484 -19.4945 -15.5827 -2.87567 3.11901 30.319 -4.20013 1.10974 -0.405077 -14.6946 2.38418 -3.31921 1.22346 -2.87008 -3.40118 -4.96613 
-214.669 73.5649 204.392 102.528 44.7419 79.3688 -164.867 70.1108 73.225 -8.25708 0.189842 -1.33489 24.9188 5.40836 -36.0665 151.347 6.37763 -60.3027 170.245 -62.7753 85.987 -7.52365 -13.489 -1.40712 115.751 -18.1676 1.75953 28.1916 -0.274702 1.735 0.96945 8.2275 -90.1822 10.4234 1.84776 -0.524034 -1.24636 1.82292 -0.604885 -23.792 1.9198 0.0557222 -3.77934 1.91979 0.0557094 88.4377 -33.0212 -108.602 38.8644 6.48726 -18.5491 -5.08538 -38.7134 -5.32729 -27.6136 3.64594 -20.4267 -85.6884 -61.3372 86.6526 -19.1208 -15.724 -1.48636 3.06286 29.3513 -4.12605 1.62041 -0.418598 -13.7712 2.91096 -2.85463 4.32613 -2.04446 -3.48245 -4.14938 
